{"title":"Ronin.1998.720p.BluRay.H264.AAC-RARBG","uid":12159644,"size":1578954899,"categoryP":"video","categoryS":"hd___movies","magnet":"?xt=urn:btih:1e57a23a73816afb1d93af7ff8c72a963939f0f6&amp;dn=Ronin.1998.720p.BluRay.H264.AAC-RARBG&amp;tr=udp%3A%2F%2Ftracker.openbittorrent.com%3A80&amp;tr=udp%3A%2F%2Fopen.demonii.com%3A1337&amp;tr=udp%3A%2F%2Ftracker.coppersurfer.tk%3A6969&amp;tr=udp%3A%2F%2Fexodus.desync.com%3A6969","seeders":1,"leechers":1,"uploader":null,"files":5,"time":1437856820,"description":"Video\nID                                       : 1\nFormat                                   : AVC\nFormat/Info                              : Advanced Video Codec\nFormat profile                           : &lt;a class=&quot;__cf_email__&quot; href=&quot;/cdn-cgi/l/email-protection&quot; data-cfemail=&quot;8bc3e2ece3cbc7bfa5ba&quot;&gt;[email&amp;#160;protected]&lt;/a&gt;&lt;script data-cfhash='f9e31' type=&quot;text/javascript&quot;&gt;\n/* &lt;![CDATA[ */!function(){try{var t=&quot;currentScript&quot;in document?document.currentScript:function(){for(var t=document.getElementsByTagName(&quot;script&quot;),e=t.length;e--;)if(t[e].getAttribute(&quot;data-cfhash&quot;))return t[e]}();if(t&amp;&amp;t.previousSibling){var e,r,n,i,c=t.previousSibling,a=c.getAttribute(&quot;data-cfemail&quot;);if(a){for(e=&quot;&quot;,r=parseInt(a.substr(0,2),16),n=2;a.length-n;n+=2)i=parseInt(a.substr(n,2),16)^r,e+=String.fromCharCode(i);e=document.createTextNode(e),c.parentNode.replaceChild(e,c)}t.parentNode.removeChild(t);}}catch(u){}}()/* ]]&gt; */&lt;/script&gt;\nFormat settings, CABAC                   : Yes\nFormat settings, ReFrames                : 4 frames\nCodec ID                                 : avc1\nCodec ID/Info                            : Advanced Video Coding\nDuration                                 : 2h 1mn\nBit rate                                 : 1 500 Kbps\nWidth                                    : 1 280 pixels\nHeight                                   : 542 pixels\nDisplay aspect ratio                     : 2.35:1\nFrame rate mode                          : Constant\nFrame rate                               : 23.976 fps\nColor space                              : YUV\nChroma subsampling                       : 4:2:0\nBit depth                                : 8 bits\nScan type                                : Progressive\nBits/(Pixel*Frame)                       : 0.090\nStream size                              : 1.27 GiB (87%)\nWriting library                          : x264 core 144 r2525M 40bb568\nEncoding settings                        : cabac=1 / ref=4 / deblock=1:-1:-1 / analyse=0x3:0x113 / me=umh / subme=9 / psy=1 / psy_rd=1.00:0.15 / mixed_ref=1 / me_range=24 / chroma_me=1 / trellis=2 / 8x8dct=1 / cqm=0 / deadzone=21,11 / fast_pskip=1 / chroma_qp_offset=-3 / threads=32 / lookahead_threads=4 / sliced_threads=0 / nr=0 / decimate=1 / interlaced=0 / bluray_compat=0 / constrained_intra=0 / bframes=3 / b_pyramid=2 / b_adapt=1 / b_bias=0 / direct=1 / weightb=1 / open_gop=0 / weightp=2 / keyint=250 / keyint_min=25 / scenecut=40 / intra_refresh=0 / rc_lookahead=50 / rc=2pass / mbtree=1 / bitrate=1500 / ratetol=1.0 / qcomp=0.60 / qpmin=0 / qpmax=69 / qpstep=4 / cplxblur=20.0 / qblur=0.5 / vbv_maxrate=31250 / vbv_bufsize=31250 / nal_hrd=none / filler=0 / ip_ratio=1.40 / aq=3:1.00\nEncoded date                             : UTC 1904-01-01 00:00:00\nTagged date                              : UTC 1904-01-01 00:00:00\n\nAudio\nID                                       : 2\nFormat                                   : AAC\nFormat/Info                              : Advanced Audio Codec\nFormat profile                           : LC\nCodec ID                                 : 40\nDuration                                 : 2h 1mn\nBit rate mode                            : Constant\nBit rate                                 : 224 Kbps\nChannel(s)                               : 2 channels\nChannel(s)_Original                      : 6 channels\nChannel positions                        : Front: L C R, Side: L R, LFE\nSampling rate                            : 48.0 KHz\nCompression mode                         : Lossy\nStream size                              : 195 MiB (13%)\nLanguage                                 : English\nEncoded date                             : UTC 1904-01-01 00:00:00\nTagged date                              : UTC 1904-01-01 00:00:00\n\nMenu #1\nID                                       : 3\nCodec ID                                 : text\nDuration                                 : 2h 1mn\nLanguage                                 : English\nEncoded date                             : UTC 1904-01-01 00:00:00\nTagged date                              : UTC 1904-01-01 00:00:00\n00:00:00.000                             : Start\n00:07:01.839                             : Team Dynamics\n00:10:29.005                             : Botched Exchange\n00:15:23.382                             : New Negotiations\n00:17:22.126                             : Photographic Study\n00:18:55.094                             : Remote Sensor Tracking\n00:24:12.828                             : In Search of Gregor\n00:26:20.705                             : Answering to the Boss\n00:27:20.181                             : Those Who Wait...\n00:31:22.215                             : The Link to the Case\n00:33:54.534                             : Ice-Skating Gala\n00:39:19.942                             : Farewell\n00:41:19.395                             : Bull's-Eye Bombing\n00:45:21.762                             : Chasing the Target\n00:49:51.281                             : Crashing the Case\n00:51:35.886                             : Spiritual Doctor\n00:54:35.607                             : &quot;Life Is Uncertain&quot;\n00:57:32.283                             : Gregor's Icy Ring\n00:58:53.281                             : &quot;I Need Your Help!&quot;\n01:01:21.387                             : The Arena Massacre\n01:09:04.642                             : Directing Surgery\n01:14:48.318                             : Seamus' Hostility\n01:20:06.094                             : Masterless Samurai\n01:24:01.538                             : Fragile Hesitation\n01:27:05.388                             : Chases to Die For\n01:35:04.367                             : A Questionable Case\n01:39:31.967                             : Scary Ice Skating\n01:45:25.153                             : Gregor's Gunned Down\n01:49:22.307                             : A Frenzy of Fleeing\n01:51:49.454                             : Showdown with Seamus\n01:53:46.446                             : &quot;Peaceful&quot; Closure\n01:56:02.624                             : Credits\nBit rate mode                            : VBR\n\nMenu #2\n00:00:00.043                             : Start\n00:07:01.839                             : Team Dynamics\n00:10:29.005                             : Botched Exchange\n00:15:23.382                             : New Negotiations\n00:17:22.126                             : Photographic Study\n00:18:55.094                             : Remote Sensor Tracking\n00:24:12.828                             : In Search of Gregor\n00:26:20.705                             : Answering to the Boss\n00:27:20.181                             : Those Who Wait...\n00:31:22.215                             : The Link to the Case\n00:33:54.534                             : Ice-Skating Gala\n00:39:19.942                             : Farewell\n00:41:19.395                             : Bull's-Eye Bombing\n00:45:21.762                             : Chasing the Target\n00:49:51.281                             : Crashing the Case\n00:51:35.886                             : Spiritual Doctor\n00:54:35.607                             : &quot;Life Is Uncertain&quot;\n00:57:32.283                             : Gregor's Icy Ring\n00:58:53.281                             : &quot;I Need Your Help!&quot;\n01:01:21.387                             : The Arena Massacre\n01:09:04.642                             : Directing Surgery\n01:14:48.318                             : Seamus' Hostility\n01:20:06.094                             : Masterless Samurai\n01:24:01.538                             : Fragile Hesitation\n01:27:05.388                             : Chases to Die For\n01:35:04.367                             : A Questionable Case\n01:39:31.967                             : Scary Ice Skating\n01:45:25.153                             : Gregor's Gunned Down\n01:49:22.307                             : A Frenzy of Fleeing\n01:51:49.454                             : Showdown with Seamus\n01:53:46.446                             : &quot;Peaceful&quot; Closure\n01:56:02.624                             : Credits","torrent":{"xt":"urn:btih:1e57a23a73816afb1d93af7ff8c72a963939f0f6","amp;dn":"Ronin.1998.720p.BluRay.H264.AAC-RARBG","amp;tr":["udp%3A%2F%2Ftracker.openbittorrent.com%3A80","udp%3A%2F%2Fopen.demonii.com%3A1337","udp%3A%2F%2Ftracker.coppersurfer.tk%3A6969","udp%3A%2F%2Fexodus.desync.com%3A6969"],"infoHash":"1e57a23a73816afb1d93af7ff8c72a963939f0f6","infoHashBuffer":{"type":"Buffer","data":[30,87,162,58,115,129,106,251,29,147,175,127,248,199,42,150,57,57,240,246]},"announce":[],"urlList":[]}}